<?xml version="1.0" encoding="UTF-8" standalone="no"?>
<svg
   xmlns:dc="http://purl.org/dc/elements/1.1/"
   xmlns:cc="http://creativecommons.org/ns#"
   xmlns:rdf="http://www.w3.org/1999/02/22-rdf-syntax-ns#"
   xmlns:svg="http://www.w3.org/2000/svg"
   xmlns="http://www.w3.org/2000/svg"
   id="svg8"
   version="1.1"
   viewBox="0 0 33.866666 33.866667"
   height="128"
   width="128">
  <defs
     id="defs2" />
  <metadata
     id="metadata5">
    <rdf:RDF>
      <cc:Work
         rdf:about="">
        <dc:format>image/svg+xml</dc:format>
        <dc:type
           rdf:resource="http://purl.org/dc/dcmitype/StillImage" />
        <dc:title></dc:title>
      </cc:Work>
    </rdf:RDF>
  </metadata>
  <g
     transform="translate(-45.559688,-198.06405)"
     id="layer1">
    <g
       transform="translate(20.847023,13.096206)"
       id="g846">
      <g
         transform="translate(1.058337,-1.0583527)"
         id="g964">
        <path
           style="fill:#99d4d2;stroke-width:0.06210237"
           d="m 26.53943,218.67395 c -0.449868,-0.2234 -0.649891,-0.49269 -0.843524,-1.13564 -0.09018,-0.29945 -0.163969,-0.56272 -0.163969,-0.58503 0,-0.0223 6.774777,-0.0406 15.055061,-0.0406 8.280284,0 15.055061,0.0182 15.055061,0.0406 0,0.0223 -0.07379,0.28558 -0.163969,0.58503 -0.193633,0.64295 -0.393657,0.91224 -0.843523,1.13564 L 54.3112,218.83453 H 40.586998 26.862797 Z m 12.678926,-20.45718 v -2.7635 l 0.177273,-0.17665 c 0.0975,-0.0972 0.278604,-0.1956 0.402454,-0.21875 l 0.225181,-0.0421 0.01965,-0.72189 0.01964,-0.72188 0.01338,0.72843 0.01338,0.72842 h 0.495714 0.495714 l 0.0197,-0.72842 0.0197,-0.72843 0.01338,0.72153 0.01338,0.72153 0.227099,0.0425 c 0.124904,0.0233 0.306871,0.12195 0.404371,0.21911 l 0.177273,0.17665 v 2.7635 2.7635 h -1.368642 -1.368642 z"
           id="path864" />
        <path
           style="fill:#76c6c3;stroke-width:0.06210237"
           d="m 26.547113,215.87437 c 0.780752,-0.01 2.040524,-0.01 2.799495,2e-5 0.758971,0.01 0.120174,0.0179 -1.419548,0.0179 -1.539722,-1e-5 -2.160698,-0.008 -1.379947,-0.0179 z m 26.186582,4e-5 c 0.607336,-0.0101 1.601157,-0.0101 2.208491,0 0.607336,0.0101 0.110425,0.0185 -1.104245,0.0185 -1.21467,0 -1.71158,-0.008 -1.104246,-0.0185 z"
           id="path862" />
        <path
           style="fill:#ce9387;stroke-width:0.06210237"
           d="m 50.359036,202.61795 c 0.003,-0.0722 0.01773,-0.0869 0.03759,-0.0375 0.01796,0.0447 0.01575,0.0982 -0.0049,0.11882 -0.02067,0.0206 -0.03538,-0.016 -0.03267,-0.0814 z m -17.590519,-1.62216 c 1.191512,-0.009 3.123163,-0.009 4.292559,2e-5 1.169397,0.009 0.194523,0.0171 -2.166384,0.0171 -2.360907,0 -3.317686,-0.008 -2.126175,-0.0172 z m 10.877983,3e-5 c 0.912864,-0.01 2.42459,-0.01 3.359392,-1e-5 0.934804,0.01 0.187914,0.0175 -1.659751,0.0175 -1.847668,2e-5 -2.612507,-0.008 -1.699641,-0.0175 z m -5.854085,-10.46669 c 0.003,-0.0722 0.01773,-0.0869 0.03758,-0.0375 0.01797,0.0447 0.01576,0.0982 -0.0049,0.11882 -0.02067,0.0206 -0.03538,-0.016 -0.03267,-0.0814 z m 5.53678,0 c 0.003,-0.0722 0.01773,-0.0869 0.03758,-0.0375 0.01796,0.0447 0.01575,0.0982 -0.0049,0.11882 -0.02067,0.0206 -0.03538,-0.016 -0.03267,-0.0814 z"
           id="path860" />
        <path
           style="fill:#fdd001;stroke-width:0.06210237"
           d="m 39.67971,193.47703 c -1.255951,-0.42676 -2.039138,-1.71963 -1.835193,-3.0295 0.201396,-1.2935 1.034671,-2.39795 2.384768,-3.16086 l 0.357713,-0.20214 0.357714,0.20214 c 1.667285,0.94214 2.628174,2.55981 2.383037,4.01188 -0.171486,1.0158 -0.875366,1.85018 -1.839716,2.18081 l -0.325287,0.11152 -0.03161,-0.44024 c -0.02727,-0.37979 -0.05446,-0.45982 -0.198026,-0.58289 -0.211457,-0.18125 -0.47988,-0.18201 -0.68994,-0.002 -0.138178,0.11844 -0.170699,0.21011 -0.205655,0.5797 l -0.04152,0.43901 -0.316284,-0.10747 z"
           id="path858" />
        <path
           style="fill:#55b5b2;stroke-width:0.06210237"
           d="m 24.995948,216.82379 c -0.387172,-0.16792 -0.374204,-0.77699 0.01883,-0.88455 0.230599,-0.0631 30.917505,-0.0639 31.144434,-7e-4 0.401926,0.11175 0.405507,0.72125 0.0052,0.88792 -0.305869,0.12735 -30.874747,0.1248 -31.168484,-0.003 z m 15.093362,-22.9149 c 0,-0.61598 0.02693,-1.1701 0.05983,-1.23138 0.101393,-0.18879 0.405654,-0.28073 0.626865,-0.18943 0.103956,0.0429 0.215936,0.12816 0.248844,0.18943 0.03291,0.0613 0.05983,0.6154 0.05983,1.23138 v 1.11996 H 40.586998 40.08931 Z"
           id="path856" />
        <path
           style="fill:#c7805b;stroke-width:0.06210237"
           d="m 30.799135,212.46982 c -0.02281,-0.0227 -0.04147,-0.12384 -0.04147,-0.22468 0,-0.10084 -0.10429,-0.41003 -0.231756,-0.6871 -0.201278,-0.4375 -0.231957,-0.56507 -0.233291,-0.97004 -0.0013,-0.4033 0.02758,-0.52894 0.213991,-0.92991 0.11854,-0.25499 0.23052,-0.58916 0.248844,-0.74259 l 0.03332,-0.27897 0.264397,0.003 c 0.145418,0.002 4.043715,0.009 8.662881,0.0155 l 8.398484,0.0127 v 1.92181 1.92182 h -8.636959 c -4.750329,0 -8.655624,-0.0186 -8.678434,-0.0413 z m 9.247242,-19.20779 c 3.76e-4,-0.20458 0.01196,-0.2808 0.02581,-0.16938 0.01385,0.11143 0.01356,0.27881 -6.35e-4,0.37197 -0.0142,0.0932 -0.02552,0.002 -0.02517,-0.20259 z m 1.057587,0 c 3.76e-4,-0.20458 0.01196,-0.2808 0.02581,-0.16938 0.01385,0.11143 0.01356,0.27881 -6.34e-4,0.37197 -0.0142,0.0932 -0.02552,0.002 -0.02517,-0.20259 z"
           id="path854" />
        <path
           style="fill:#b4634c;stroke-width:0.06210237"
           d="m 30.86653,212.52939 c 0.07699,-0.0148 0.202963,-0.0148 0.279949,0 0.07699,0.0148 0.014,0.0269 -0.139974,0.0269 -0.153973,0 -0.216961,-0.0121 -0.139975,-0.0269 z m 0.501576,0.001 c 0.04491,-0.0179 0.09857,-0.0157 0.119238,0.005 0.02067,0.0206 -0.01607,0.0353 -0.08165,0.0326 -0.07247,-0.003 -0.08721,-0.0177 -0.03759,-0.0375 z m 16.761029,-1.92574 -0.0146,-1.93709 -8.414037,-0.0159 -8.414037,-0.016 8.415989,-0.0153 c 6.723458,-0.0122 8.42204,4.6e-4 8.446078,0.0629 0.01655,0.043 0.02224,0.92871 0.01265,1.9683 l -0.01745,1.89018 z m -8.24201,-9.60907 c 0.38493,-0.0109 1.014816,-0.0109 1.399747,0 0.384931,0.0109 0.06999,0.0198 -0.699874,0.0198 -0.769861,0 -1.084804,-0.009 -0.699873,-0.0198 z"
           id="path852" />
        <path
           style="fill:#ab4836;stroke-width:0.06210237"
           d="m 30.508817,215.3783 c -0.310959,-0.68605 -0.307177,-1.14372 0.01555,-1.88193 0.12831,-0.29349 0.233291,-0.61847 0.233291,-0.72218 0,-0.17949 0.01423,-0.18998 0.295503,-0.21804 0.162526,-0.0162 4.081819,-0.0334 8.709539,-0.0381 l 8.414038,-0.009 v 1.67469 1.6747 l -8.725093,-7e-5 -8.725092,-6e-5 z m 19.873937,-2.75866 c -0.01632,-0.0426 -0.02227,-2.26743 -0.01321,-4.94402 l 0.01646,-4.86653 0.01517,4.90786 c 0.01192,3.85687 0.03182,4.91455 0.09293,4.93912 0.06091,0.0245 0.06049,0.0323 -0.0019,0.0362 -0.04384,0.003 -0.09307,-0.03 -0.109396,-0.0726 z m -10.914787,-4.01379 -8.677668,-0.0313 -0.04058,-0.28273 c -0.02232,-0.1555 -0.134065,-0.46237 -0.248322,-0.68193 -0.185733,-0.35691 -0.207519,-0.45175 -0.205649,-0.89516 0.0018,-0.42913 0.02969,-0.55441 0.2069,-0.92991 0.112644,-0.23867 0.223448,-0.55949 0.246232,-0.71293 l 0.04142,-0.27897 8.69322,-0.0157 8.69322,-0.0157 v 1.95302 c 0,1.07416 -0.007,1.9462 -0.01554,1.93785 -0.0086,-0.008 -3.920504,-0.0293 -8.69322,-0.0465 z"
           id="path850" />
        <path
           style="fill:#981c05;stroke-width:0.06210237"
           d="m 48.176741,210.31179 v -5.54703 l -8.911727,-0.0169 -8.911725,-0.0169 -0.311055,-0.14254 c -1.551933,-0.7112 -1.454504,-2.9202 0.152253,-3.45202 0.254697,-0.0843 1.355963,-0.0934 9.554989,-0.0792 l 9.267112,0.0161 0.286163,0.14051 c 0.345239,0.16952 0.704618,0.51471 0.886389,0.8514 0.133223,0.24676 0.134032,0.27334 0.164984,5.42371 l 0.03111,5.17575 0.27995,0.0399 c 0.400351,0.0571 0.694788,0.1943 0.99301,0.46279 0.670153,0.60333 0.785458,1.58961 0.27661,2.36602 l -0.213304,0.32547 h -1.772378 -1.772377 z"
           id="path848" />
      </g>
    </g>
  </g>
</svg>
